<svg width="32" height="32" viewBox="0 0 32 32" fill="none" xmlns="http://www.w3.org/2000/svg">
<path d="M29.6662 13.2762L7.67623 5.12497L7.65623 5.11872C7.30227 4.99685 6.92122 4.97676 6.55641 5.06075C6.1916 5.14474 5.85769 5.32943 5.59265 5.59381C5.32762 5.8582 5.14211 6.19165 5.05722 6.55625C4.97234 6.92085 4.99148 7.30196 5.11248 7.65622C5.114 7.66305 5.11609 7.66974 5.11873 7.67622L13.2762 29.6662C13.4102 30.0583 13.6643 30.3982 14.0025 30.6376C14.3407 30.8771 14.7457 31.0038 15.16 31H15.1975C15.62 30.9967 16.0303 30.8578 16.3679 30.6038C16.7055 30.3497 16.9525 29.9938 17.0725 29.5887L17.08 29.5637L19.81 19.8137L29.56 17.0837L29.585 17.0762C29.9871 16.9525 30.34 16.7051 30.5934 16.3692C30.8468 16.0333 30.9878 15.6261 30.9964 15.2055C31.0049 14.7848 30.8807 14.3722 30.6412 14.0263C30.4017 13.6804 30.0592 13.4188 29.6625 13.2787L29.6662 13.2762ZM18.73 18.0375C18.5649 18.0838 18.4144 18.1719 18.2932 18.2931C18.1719 18.4144 18.0838 18.5648 18.0375 18.73L15.1625 29L15.155 28.9787L6.99998 6.99997L28.9775 15.1525L28.9975 15.16L18.73 18.0375Z" fill="#343330"/>
</svg>
